<?xml version="1.0" encoding="utf-8"?>
<!-- Generator: Adobe Illustrator 26.5.0, SVG Export Plug-In . SVG Version: 6.00 Build 0)  -->
<svg version="1.1"
	 id="svg6" xmlns:svg="http://www.w3.org/2000/svg" xmlns:sodipodi="http://sodipodi.sourceforge.net/DTD/sodipodi-0.dtd" xmlns:inkscape="http://www.inkscape.org/namespaces/inkscape"
	 xmlns="http://www.w3.org/2000/svg" xmlns:xlink="http://www.w3.org/1999/xlink" x="0px" y="0px" viewBox="0 0 2834.6 841.9"
	 style="enable-background:new 0 0 2834.6 841.9;" xml:space="preserve">
<style type="text/css">
	.st0{fill-rule:evenodd;clip-rule:evenodd;fill:#FFFFFF;}
</style>
<sodipodi:namedview  bordercolor="#000000" borderopacity="0.25" id="namedview6" inkscape:current-layer="Layer1000" inkscape:cx="1889.7647" inkscape:cy="560.89533" inkscape:deskcolor="#d1d1d1" inkscape:document-units="in" inkscape:pagecheckerboard="0" inkscape:pageopacity="0.0" inkscape:showpageshadow="2" inkscape:window-height="1027" inkscape:window-maximized="1" inkscape:window-width="1920" inkscape:window-x="-8" inkscape:window-y="-8" inkscape:zoom="0.36459565" pagecolor="#ffffff">
	</sodipodi:namedview>
<g id="Layer1000">
	<path id="path1" class="st0" d="M88.5,193.7v-22.2c0-6.2-1.1-11.1-3.2-14.9c-2.1-3.8-5.4-5.6-10-5.6c-4.5,0-7.8,1.9-10,5.6
		c-2.1,3.8-3.2,8.7-3.2,14.9v117c0,6.2,1.1,11.1,3.2,14.9c2.1,3.8,5.4,5.6,10,5.6c4.5,0,7.8-1.9,10-5.6c2.1-3.8,3.2-8.7,3.2-14.9
		v-26.7h60.2c0,13.5-0.9,26.1-2.7,38c-1.8,11.9-5.4,22.2-10.8,31.1c-5.4,8.9-12.8,15.9-22.4,21c-9.6,5.1-22.1,7.7-37.5,7.7
		c-15.7,0-28.5-2.4-38.3-7.2c-9.8-4.8-17.5-12.4-23-22.9C8.6,319,4.9,305.6,2.9,289.3C1,273,0,253.2,0,229.9c0-25.1,1.1-46,3.4-62.6
		c2.3-16.7,6.3-29.9,12-39.9c5.7-9.9,13.4-16.9,23.1-21c9.7-4.1,21.9-6.2,36.7-6.2c15.1,0,27.4,2.2,37,6.7
		c9.6,4.4,17.1,10.7,22.5,18.8c5.4,8.1,9.1,17.9,11.1,29.4c2,11.5,2.9,24.3,2.9,38.5H88.5z M280.3,288.4c0,6.2,1.1,11.1,3.2,14.9
		c2.1,3.8,5.4,5.6,10,5.6c4.5,0,7.8-1.9,10-5.6c2.1-3.8,3.2-8.7,3.2-14.9v-117c0-6.2-1.1-11.1-3.2-14.9c-2.1-3.8-5.4-5.6-10-5.6
		c-4.5,0-7.8,1.9-10,5.6c-2.1,3.8-3.2,8.7-3.2,14.9V288.4z M218.2,229.9c0-25.1,1.1-46,3.4-62.6c2.3-16.7,6.3-29.9,12-39.9
		c5.7-9.9,13.4-16.9,23.1-21c9.7-4.1,21.9-6.2,36.7-6.2c14.8,0,27,2.1,36.7,6.2c9.7,4.1,17.4,11.1,23.1,21c5.7,9.9,9.7,23.2,12,39.9
		c2.3,16.7,3.4,37.5,3.4,62.6c0,25.1-1.1,46-3.4,62.6c-2.3,16.7-6.3,29.9-12,39.9c-5.7,9.9-13.4,16.9-23.1,21
		c-9.7,4.1-21.9,6.2-36.7,6.2c-14.8,0-27-2.1-36.7-6.2c-9.7-4.1-17.4-11.1-23.1-21c-5.7-9.9-9.7-23.2-12-39.9
		C219.4,275.9,218.2,255,218.2,229.9z M443.2,107.8h88.1l13.6,146.1h0.5L561,107.8h86v244.3h-51.2V166h-0.5l-24,186.1h-52.5
		l-24-186.1h-0.5v186.1h-51.2V107.8z M724.9,107.8h125.4V166H786v36.3h59.1v52H786v97.9h-61.1V107.8z M977,288.4
		c0,6.2,1.1,11.1,3.2,14.9c2.1,3.8,5.4,5.6,10,5.6c4.5,0,7.8-1.9,10-5.6c2.1-3.8,3.2-8.7,3.2-14.9v-117c0-6.2-1.1-11.1-3.2-14.9
		c-2.1-3.8-5.4-5.6-10-5.6c-4.5,0-7.8,1.9-10,5.6c-2.1,3.8-3.2,8.7-3.2,14.9V288.4z M915,229.9c0-25.1,1.1-46,3.4-62.6
		c2.3-16.7,6.3-29.9,12-39.9c5.7-9.9,13.4-16.9,23.1-21c9.7-4.1,21.9-6.2,36.7-6.2c14.8,0,27,2.1,36.7,6.2
		c9.7,4.1,17.4,11.1,23.1,21c5.7,9.9,9.7,23.2,12,39.9c2.3,16.7,3.4,37.5,3.4,62.6c0,25.1-1.1,46-3.4,62.6
		c-2.3,16.7-6.3,29.9-12,39.9c-5.7,9.9-13.4,16.9-23.1,21c-9.7,4.1-21.9,6.2-36.7,6.2c-14.8,0-27-2.1-36.7-6.2
		c-9.7-4.1-17.4-11.1-23.1-21c-5.7-9.9-9.7-23.2-12-39.9C916.1,275.9,915,255,915,229.9z M1141.4,107.8h94.6
		c17.7,0,30.8,5.3,39.5,15.9c8.7,10.6,13,27.9,13,51.8c0,15.5-2.9,27.9-8.6,37.1c-5.7,9.2-13.6,14.7-23.5,16.3v0.7
		c3.2,0.5,6.6,1.7,10.3,3.6c3.7,1.9,7.1,4.7,10.2,8.2c3.1,3.5,5.7,8,7.8,13.3c2.1,5.4,3.2,11.8,3.2,19.3v55.1
		c0,6.6,0.9,11.7,2.6,15.2c1.7,3.5,3.7,5.9,5.8,7l-0.2,0.7h-60.4c-2.7,0-4.9-1.6-6.5-4.8c-1.6-3.2-2.4-7.5-2.4-13v-53.7
		c0-10.5-1.2-18-3.5-22.4c-2.3-4.4-6.4-6.7-12.1-6.7h-8.6v100.6h-61.1V107.8z M1202.5,204.3h9.7c5.6,0,9.5-2.6,11.8-7.9
		c2.3-5.2,3.4-11.4,3.4-18.5c0-8.7-1.6-14.7-4.8-18c-3.2-3.3-7.1-5-11.8-5h-8.4V204.3z M1349.6,107.8h133.1V166H1447v186.1h-61.1
		V166h-36.2V107.8z"/>
	<path id="path2" class="st0" d="M753.6,462.9h189v66h-50.8v299.6H805V528.8h-51.4V462.9z M1026.8,462.9h134.3
		c25.1,0,43.8,7.5,56.1,22.6c12.3,15.1,18.5,39.6,18.5,73.6c0,22-4.1,39.6-12.2,52.7c-8.1,13.1-19.3,20.8-33.4,23.1v1
		c4.5,0.6,9.4,2.3,14.6,5.1c5.2,2.7,10.1,6.6,14.5,11.7c4.4,5,8.1,11.3,11.1,18.9c3,7.6,4.5,16.8,4.5,27.4v78.2
		c0,9.4,1.2,35.4,3.7,40.4c2.5,5,5.2,8.3,8.2,10l-0.3,1h-85.8c-3.9,0-6.9-2.3-9.2-6.8c-2.2-4.5-3.4-29.5-3.4-37.3v-76.2
		c0-14.9-1.7-25.5-5-31.8c-3.3-6.3-9.1-9.5-17.2-9.5h-12.2v161.6h-86.8V462.9z M1113.5,599.8h13.8c7.9,0,13.5-3.7,16.7-11.2
		c3.2-7.4,4.8-16.2,4.8-26.2c0-12.3-2.3-20.8-6.8-25.5c-4.5-4.7-10.1-7-16.7-7h-11.9V599.8z M1397.6,688.2h34.4L1416,526h-0.6
		L1397.6,688.2z M1373.4,462.9h80.2l79.7,365.5h-88.7l-6.4-73.2h-47.6l-6.4,73.2h-89.3L1373.4,462.9z M1562.3,462.9h84.7l28.1,237
		h0.6l48.4-402.3l78.7-33.3l-79.2,564.2h-94.8L1562.3,462.9z M1853.8,252.3l167.3-76.9v105.7l-91.3,47.1l1.1,222.2h83.9v73.8H1931
		v125.6h91.3v78.7h-167.3L1853.8,252.3z M2101.1,145.5l69-29.7v634h93.8v78.7h-162.8V145.5z"/>
	<g id="Layer1001">
		<path id="path3" class="st0" d="M2772.1,573.2c-18.2,35-303.4,57.8-426.2-13.5c-12.6-143.3-25.2-422-63-559.8
			c90.5-0.8,347.8,21.2,399.4,78.1c7,7.7,13.5,16.5,19.6,26.1c-69.3-23.6-176.1-47.3-330.7-53.8c-19.6-0.8-44.8-3.2-46.2,22.5
			c36.9,0.6,59,1.5,59,1.5c44.2,10.6,50,76.1,62.8,154.6c5.7,34.8-50.8,26.8-52.6,3.7c-8.2-106.3,1.4-140.9-67.2-141.5
			c16.5,91.5,25.1,298.5,34.9,400.9c4.3,45,21.1,50.5,77,62.4c54.2,11.5,119.7,19.2,201.3,14.4c78.8-4.7,105.8-5.6,107.5-84.1
			c0.9-43.9,1.9-179.9-7.8-255.9c0-4.4-0.1-8.7-0.3-12.9C2768.3,312.7,2773.2,504.6,2772.1,573.2z"/>
		<path id="path4" class="st0" d="M1782.1,251.6c4.4-14.5,14.6-23.7,39-35.4C1992,134.5,2106.5,68,2229.6,13.6
			c12.8-4,19.7-6.1,27.6,24.3c19.4,85.3,49.4,262.7,58.8,419.3h-5.2c-14.6-107.6-47.7-275.1-70.5-348.5
			c-16.7-53.8-32.5-40.1-73.4-22.2C2098.1,116.8,2021.6,148.3,1782.1,251.6z"/>
		<path id="path5" class="st0" d="M2745.3,174.9c43.5,3.1,41.4,30,56.7,105.8c3.4,17.1,36.5,12.5,32.3-13.6
			c-9.6-59.1-27.4-97.2-60.6-105.2c0,0-10.6-0.5-31.7-0.9C2743.3,165.6,2744.5,170.2,2745.3,174.9z"/>
		<path id="path6" class="st0" d="M2381.2,838.5c0,0,66.3,7.8,223.9-0.2c34.5-1.8,57.7-1.4,76.9-5c34.8-6.5,87.9-45.6,90.8-91.7
			c1.6,0,6.5-44.3,1.1-132.9c-23.9,13.5-16.8,12.5-16.7,43.8l-42,51.8c-7.1,9.6-13.5,12-32.2,13.8c-47.2,4.5-99.1,6.5-143.5,6.4
			c-47.7-0.1-60.9,0.7-98.7-32.3l-95.7-83.6c1.6,19.8,3.1,39.7,4.5,59.5c5,70.9,8.1,77.6,54.2,83.4c122.7,15.3,263.9,5.1,348.3-13.6
			c-3.6,22-17.1,35.4-35.5,41.4c-237.7,19-354.8,14.3-385.3,0C2346.3,804.6,2361.2,836.8,2381.2,838.5z"/>
	</g>
</g>
</svg>
